<?xml version="1.0" encoding="UTF-8" standalone="no"?>
<!DOCTYPE svg PUBLIC "-//W3C//DTD SVG 1.1//EN"
 "http://www.w3.org/Graphics/SVG/1.1/DTD/svg11.dtd">
<!-- Generated by graphviz version 10.0.1 (20240210.2158)
 -->
<!-- Title: G Pages: 1 -->
<svg width="1155pt" height="87pt"
 viewBox="0.00 0.00 1154.50 87.00" xmlns="http://www.w3.org/2000/svg" xmlns:xlink="http://www.w3.org/1999/xlink">
<g id="graph0" class="graph" transform="scale(1 1) rotate(0) translate(4 83)">
<title>G</title>
<polygon fill="white" stroke="none" points="-4,4 -4,-83 1150.5,-83 1150.5,4 -4,4"/>
<text text-anchor="middle" x="573.25" y="-6.45" font-family="Times New Roman,serif" font-size="14.00">Cola</text>
<!-- nodo0 -->
<g id="node1" class="node">
<title>nodo0</title>
<polygon fill="none" stroke="black" points="1146.5,-79 591.25,-79 591.25,-23.75 1146.5,-23.75 1146.5,-79"/>
<text text-anchor="middle" x="868.88" y="-61.7" font-family="Times New Roman,serif" font-size="14.00">ID: 3</text>
<text text-anchor="middle" x="868.88" y="-45.95" font-family="Times New Roman,serif" font-size="14.00">XML: C:/Users/sanci/Desktop/proyectopracticas/Proyecto 1/Clase8/Entradas/Imagenes/rana.xml</text>
<text text-anchor="middle" x="868.88" y="-30.2" font-family="Times New Roman,serif" font-size="14.00">ID Solicitante: IPC&#45;001</text>
</g>
<!-- nodo1 -->
<g id="node2" class="node">
<title>nodo1</title>
<polygon fill="none" stroke="black" points="555.25,-79 0,-79 0,-23.75 555.25,-23.75 555.25,-79"/>
<text text-anchor="middle" x="277.62" y="-61.7" font-family="Times New Roman,serif" font-size="14.00">ID: 3</text>
<text text-anchor="middle" x="277.62" y="-45.95" font-family="Times New Roman,serif" font-size="14.00">XML: C:/Users/sanci/Desktop/proyectopracticas/Proyecto 1/Clase8/Entradas/Imagenes/rana.xml</text>
<text text-anchor="middle" x="277.62" y="-30.2" font-family="Times New Roman,serif" font-size="14.00">ID Solicitante: IPC&#45;001</text>
</g>
<!-- nodo0&#45;&gt;nodo1 -->
<g id="edge1" class="edge">
<title>nodo0&#45;&gt;nodo1</title>
<path fill="none" stroke="black" d="M590.94,-51.38C582.91,-51.38 574.88,-51.38 566.84,-51.38"/>
<polygon fill="black" stroke="black" points="567.01,-47.88 557.01,-51.38 567.01,-54.88 567.01,-47.88"/>
</g>
</g>
</svg>
