<?xml version="1.0" encoding="UTF-8" standalone="no"?>
<!DOCTYPE svg PUBLIC "-//W3C//DTD SVG 1.1//EN"
 "http://www.w3.org/Graphics/SVG/1.1/DTD/svg11.dtd">
<!-- Generated by graphviz version 10.0.1 (20240210.2158)
 -->
<!-- Title: G Pages: 1 -->
<svg width="2976pt" height="112pt"
 viewBox="0.00 0.00 2975.75 111.50" xmlns="http://www.w3.org/2000/svg" xmlns:xlink="http://www.w3.org/1999/xlink">
<g id="graph0" class="graph" transform="scale(1 1) rotate(0) translate(4 107.5)">
<title>G</title>
<polygon fill="white" stroke="none" points="-4,4 -4,-107.5 2971.75,-107.5 2971.75,4 -4,4"/>
<!-- nodo1 -->
<g id="node1" class="node">
<title>nodo1</title>
<polygon fill="none" stroke="black" points="0,-0.5 0,-103 302.25,-103 302.25,-0.5 0,-0.5"/>
<text text-anchor="middle" x="9.88" y="-46.33" font-family="Times New Roman,serif" font-size="14.00"> </text>
<polyline fill="none" stroke="black" points="19.75,-0.5 19.75,-103"/>
<text text-anchor="middle" x="151.12" y="-85.7" font-family="Times New Roman,serif" font-size="14.00">ID: IPC&#45;001</text>
<text text-anchor="middle" x="151.12" y="-69.95" font-family="Times New Roman,serif" font-size="14.00">Password: 3267</text>
<text text-anchor="middle" x="151.12" y="-54.2" font-family="Times New Roman,serif" font-size="14.00">Nombre: Carlos Ruiz</text>
<text text-anchor="middle" x="151.12" y="-38.45" font-family="Times New Roman,serif" font-size="14.00">Correo: carlos.ruiz@example.com</text>
<text text-anchor="middle" x="151.12" y="-22.7" font-family="Times New Roman,serif" font-size="14.00">Telefono: 67984298</text>
<text text-anchor="middle" x="151.12" y="-6.95" font-family="Times New Roman,serif" font-size="14.00">Direccion: Ciudad de Guatemala, Guatemala</text>
<polyline fill="none" stroke="black" points="282.5,-0.5 282.5,-103"/>
<text text-anchor="middle" x="292.38" y="-46.33" font-family="Times New Roman,serif" font-size="14.00"> </text>
</g>
<!-- nodo2 -->
<g id="node2" class="node">
<title>nodo2</title>
<polygon fill="none" stroke="black" points="338.25,-0.5 338.25,-103 570.75,-103 570.75,-0.5 338.25,-0.5"/>
<text text-anchor="middle" x="348.12" y="-46.33" font-family="Times New Roman,serif" font-size="14.00"> </text>
<polyline fill="none" stroke="black" points="358,-0.5 358,-103"/>
<text text-anchor="middle" x="454.5" y="-85.7" font-family="Times New Roman,serif" font-size="14.00">ID: IPC&#45;002</text>
<text text-anchor="middle" x="454.5" y="-69.95" font-family="Times New Roman,serif" font-size="14.00">Password: 4312</text>
<text text-anchor="middle" x="454.5" y="-54.2" font-family="Times New Roman,serif" font-size="14.00">Nombre: Carlos Ruiz</text>
<text text-anchor="middle" x="454.5" y="-38.45" font-family="Times New Roman,serif" font-size="14.00">Correo: carlos.ruiz@mail.com</text>
<text text-anchor="middle" x="454.5" y="-22.7" font-family="Times New Roman,serif" font-size="14.00">Telefono: 15336206</text>
<text text-anchor="middle" x="454.5" y="-6.95" font-family="Times New Roman,serif" font-size="14.00">Direccion: Escuintla, Guatemala</text>
<polyline fill="none" stroke="black" points="551,-0.5 551,-103"/>
<text text-anchor="middle" x="560.88" y="-46.33" font-family="Times New Roman,serif" font-size="14.00"> </text>
</g>
<!-- nodo1&#45;&gt;nodo2 -->
<g id="edge1" class="edge">
<title>nodo1:f2&#45;&gt;nodo2:f1</title>
<path fill="none" stroke="black" d="M302.25,-51.75C313.62,-51.75 318.93,-51.75 326.8,-51.75"/>
<polygon fill="black" stroke="black" points="326.74,-55.25 336.74,-51.75 326.74,-48.25 326.74,-55.25"/>
</g>
<!-- nodo2&#45;&gt;nodo1 -->
<g id="edge2" class="edge">
<title>nodo2:f1&#45;&gt;nodo1:f2</title>
<path fill="none" stroke="black" d="M338.25,-51.75C326.88,-51.75 321.57,-51.75 313.7,-51.75"/>
<polygon fill="black" stroke="black" points="313.76,-48.25 303.76,-51.75 313.76,-55.25 313.76,-48.25"/>
</g>
<!-- nodo3 -->
<g id="node3" class="node">
<title>nodo3</title>
<polygon fill="none" stroke="black" points="606.75,-0.5 606.75,-103 874.5,-103 874.5,-0.5 606.75,-0.5"/>
<text text-anchor="middle" x="616.62" y="-46.33" font-family="Times New Roman,serif" font-size="14.00"> </text>
<polyline fill="none" stroke="black" points="626.5,-0.5 626.5,-103"/>
<text text-anchor="middle" x="740.62" y="-85.7" font-family="Times New Roman,serif" font-size="14.00">ID: IPC&#45;003</text>
<text text-anchor="middle" x="740.62" y="-69.95" font-family="Times New Roman,serif" font-size="14.00">Password: 1893</text>
<text text-anchor="middle" x="740.62" y="-54.2" font-family="Times New Roman,serif" font-size="14.00">Nombre: María López</text>
<text text-anchor="middle" x="740.62" y="-38.45" font-family="Times New Roman,serif" font-size="14.00">Correo: maría.lópez@mail.com</text>
<text text-anchor="middle" x="740.62" y="-22.7" font-family="Times New Roman,serif" font-size="14.00">Telefono: 23637281</text>
<text text-anchor="middle" x="740.62" y="-6.95" font-family="Times New Roman,serif" font-size="14.00">Direccion: Quetzaltenango, Guatemala</text>
<polyline fill="none" stroke="black" points="854.75,-0.5 854.75,-103"/>
<text text-anchor="middle" x="864.62" y="-46.33" font-family="Times New Roman,serif" font-size="14.00"> </text>
</g>
<!-- nodo2&#45;&gt;nodo3 -->
<g id="edge3" class="edge">
<title>nodo2:f2&#45;&gt;nodo3:f1</title>
<path fill="none" stroke="black" d="M570.75,-51.75C582.12,-51.75 587.43,-51.75 595.3,-51.75"/>
<polygon fill="black" stroke="black" points="595.24,-55.25 605.24,-51.75 595.24,-48.25 595.24,-55.25"/>
</g>
<!-- nodo3&#45;&gt;nodo2 -->
<g id="edge4" class="edge">
<title>nodo3:f1&#45;&gt;nodo2:f2</title>
<path fill="none" stroke="black" d="M606.75,-51.75C595.38,-51.75 590.07,-51.75 582.2,-51.75"/>
<polygon fill="black" stroke="black" points="582.26,-48.25 572.26,-51.75 582.26,-55.25 582.26,-48.25"/>
</g>
<!-- nodo4 -->
<g id="node4" class="node">
<title>nodo4</title>
<polygon fill="none" stroke="black" points="910.5,-0.5 910.5,-103 1182.75,-103 1182.75,-0.5 910.5,-0.5"/>
<text text-anchor="middle" x="920.38" y="-46.33" font-family="Times New Roman,serif" font-size="14.00"> </text>
<polyline fill="none" stroke="black" points="930.25,-0.5 930.25,-103"/>
<text text-anchor="middle" x="1046.62" y="-85.7" font-family="Times New Roman,serif" font-size="14.00">ID: IPC&#45;004</text>
<text text-anchor="middle" x="1046.62" y="-69.95" font-family="Times New Roman,serif" font-size="14.00">Password: 9153</text>
<text text-anchor="middle" x="1046.62" y="-54.2" font-family="Times New Roman,serif" font-size="14.00">Nombre: Camila Sánchez</text>
<text text-anchor="middle" x="1046.62" y="-38.45" font-family="Times New Roman,serif" font-size="14.00">Correo: camila.sánchez@example.com</text>
<text text-anchor="middle" x="1046.62" y="-22.7" font-family="Times New Roman,serif" font-size="14.00">Telefono: 23396941</text>
<text text-anchor="middle" x="1046.62" y="-6.95" font-family="Times New Roman,serif" font-size="14.00">Direccion: Escuintla, Guatemala</text>
<polyline fill="none" stroke="black" points="1163,-0.5 1163,-103"/>
<text text-anchor="middle" x="1172.88" y="-46.33" font-family="Times New Roman,serif" font-size="14.00"> </text>
</g>
<!-- nodo3&#45;&gt;nodo4 -->
<g id="edge5" class="edge">
<title>nodo3:f2&#45;&gt;nodo4:f1</title>
<path fill="none" stroke="black" d="M874.5,-51.75C885.88,-51.75 891.18,-51.75 899.05,-51.75"/>
<polygon fill="black" stroke="black" points="898.99,-55.25 908.99,-51.75 898.99,-48.25 898.99,-55.25"/>
</g>
<!-- nodo4&#45;&gt;nodo3 -->
<g id="edge6" class="edge">
<title>nodo4:f1&#45;&gt;nodo3:f2</title>
<path fill="none" stroke="black" d="M910.5,-51.75C899.12,-51.75 893.82,-51.75 885.95,-51.75"/>
<polygon fill="black" stroke="black" points="886.01,-48.25 876.01,-51.75 886.01,-55.25 886.01,-48.25"/>
</g>
<!-- nodo5 -->
<g id="node5" class="node">
<title>nodo5</title>
<polygon fill="none" stroke="black" points="1218.75,-0.5 1218.75,-103 1491,-103 1491,-0.5 1218.75,-0.5"/>
<text text-anchor="middle" x="1228.62" y="-46.33" font-family="Times New Roman,serif" font-size="14.00"> </text>
<polyline fill="none" stroke="black" points="1238.5,-0.5 1238.5,-103"/>
<text text-anchor="middle" x="1354.88" y="-85.7" font-family="Times New Roman,serif" font-size="14.00">ID: IPC&#45;005</text>
<text text-anchor="middle" x="1354.88" y="-69.95" font-family="Times New Roman,serif" font-size="14.00">Password: 8929</text>
<text text-anchor="middle" x="1354.88" y="-54.2" font-family="Times New Roman,serif" font-size="14.00">Nombre: Camila Sánchez</text>
<text text-anchor="middle" x="1354.88" y="-38.45" font-family="Times New Roman,serif" font-size="14.00">Correo: camila.sánchez@example.com</text>
<text text-anchor="middle" x="1354.88" y="-22.7" font-family="Times New Roman,serif" font-size="14.00">Telefono: 66267395</text>
<text text-anchor="middle" x="1354.88" y="-6.95" font-family="Times New Roman,serif" font-size="14.00">Direccion: Escuintla, Guatemala</text>
<polyline fill="none" stroke="black" points="1471.25,-0.5 1471.25,-103"/>
<text text-anchor="middle" x="1481.12" y="-46.33" font-family="Times New Roman,serif" font-size="14.00"> </text>
</g>
<!-- nodo4&#45;&gt;nodo5 -->
<g id="edge7" class="edge">
<title>nodo4:f2&#45;&gt;nodo5:f1</title>
<path fill="none" stroke="black" d="M1182.75,-51.75C1194.12,-51.75 1199.43,-51.75 1207.3,-51.75"/>
<polygon fill="black" stroke="black" points="1207.24,-55.25 1217.24,-51.75 1207.24,-48.25 1207.24,-55.25"/>
</g>
<!-- nodo5&#45;&gt;nodo4 -->
<g id="edge8" class="edge">
<title>nodo5:f1&#45;&gt;nodo4:f2</title>
<path fill="none" stroke="black" d="M1218.75,-51.75C1207.38,-51.75 1202.07,-51.75 1194.2,-51.75"/>
<polygon fill="black" stroke="black" points="1194.26,-48.25 1184.26,-51.75 1194.26,-55.25 1194.26,-48.25"/>
</g>
<!-- nodo6 -->
<g id="node6" class="node">
<title>nodo6</title>
<polygon fill="none" stroke="black" points="1527,-0.5 1527,-103 1782.75,-103 1782.75,-0.5 1527,-0.5"/>
<text text-anchor="middle" x="1536.88" y="-46.33" font-family="Times New Roman,serif" font-size="14.00"> </text>
<polyline fill="none" stroke="black" points="1546.75,-0.5 1546.75,-103"/>
<text text-anchor="middle" x="1654.88" y="-85.7" font-family="Times New Roman,serif" font-size="14.00">ID: IPC&#45;006</text>
<text text-anchor="middle" x="1654.88" y="-69.95" font-family="Times New Roman,serif" font-size="14.00">Password: 6958</text>
<text text-anchor="middle" x="1654.88" y="-54.2" font-family="Times New Roman,serif" font-size="14.00">Nombre: Diego Torres</text>
<text text-anchor="middle" x="1654.88" y="-38.45" font-family="Times New Roman,serif" font-size="14.00">Correo: diego.torres@example.com</text>
<text text-anchor="middle" x="1654.88" y="-22.7" font-family="Times New Roman,serif" font-size="14.00">Telefono: 80134227</text>
<text text-anchor="middle" x="1654.88" y="-6.95" font-family="Times New Roman,serif" font-size="14.00">Direccion: Escuintla, Guatemala</text>
<polyline fill="none" stroke="black" points="1763,-0.5 1763,-103"/>
<text text-anchor="middle" x="1772.88" y="-46.33" font-family="Times New Roman,serif" font-size="14.00"> </text>
</g>
<!-- nodo5&#45;&gt;nodo6 -->
<g id="edge9" class="edge">
<title>nodo5:f2&#45;&gt;nodo6:f1</title>
<path fill="none" stroke="black" d="M1491,-51.75C1502.38,-51.75 1507.68,-51.75 1515.55,-51.75"/>
<polygon fill="black" stroke="black" points="1515.49,-55.25 1525.49,-51.75 1515.49,-48.25 1515.49,-55.25"/>
</g>
<!-- nodo6&#45;&gt;nodo5 -->
<g id="edge10" class="edge">
<title>nodo6:f1&#45;&gt;nodo5:f2</title>
<path fill="none" stroke="black" d="M1527,-51.75C1515.62,-51.75 1510.32,-51.75 1502.45,-51.75"/>
<polygon fill="black" stroke="black" points="1502.51,-48.25 1492.51,-51.75 1502.51,-55.25 1502.51,-48.25"/>
</g>
<!-- nodo7 -->
<g id="node7" class="node">
<title>nodo7</title>
<polygon fill="none" stroke="black" points="1818.75,-0.5 1818.75,-103 2065.5,-103 2065.5,-0.5 1818.75,-0.5"/>
<text text-anchor="middle" x="1828.62" y="-46.33" font-family="Times New Roman,serif" font-size="14.00"> </text>
<polyline fill="none" stroke="black" points="1838.5,-0.5 1838.5,-103"/>
<text text-anchor="middle" x="1942.12" y="-85.7" font-family="Times New Roman,serif" font-size="14.00">ID: IPC&#45;007</text>
<text text-anchor="middle" x="1942.12" y="-69.95" font-family="Times New Roman,serif" font-size="14.00">Password: 8701</text>
<text text-anchor="middle" x="1942.12" y="-54.2" font-family="Times New Roman,serif" font-size="14.00">Nombre: Carlos Ruiz</text>
<text text-anchor="middle" x="1942.12" y="-38.45" font-family="Times New Roman,serif" font-size="14.00">Correo: carlos.ruiz@example.com</text>
<text text-anchor="middle" x="1942.12" y="-22.7" font-family="Times New Roman,serif" font-size="14.00">Telefono: 27595614</text>
<text text-anchor="middle" x="1942.12" y="-6.95" font-family="Times New Roman,serif" font-size="14.00">Direccion: Cobán, Guatemala</text>
<polyline fill="none" stroke="black" points="2045.75,-0.5 2045.75,-103"/>
<text text-anchor="middle" x="2055.62" y="-46.33" font-family="Times New Roman,serif" font-size="14.00"> </text>
</g>
<!-- nodo6&#45;&gt;nodo7 -->
<g id="edge11" class="edge">
<title>nodo6:f2&#45;&gt;nodo7:f1</title>
<path fill="none" stroke="black" d="M1782.75,-51.75C1794.12,-51.75 1799.43,-51.75 1807.3,-51.75"/>
<polygon fill="black" stroke="black" points="1807.24,-55.25 1817.24,-51.75 1807.24,-48.25 1807.24,-55.25"/>
</g>
<!-- nodo7&#45;&gt;nodo6 -->
<g id="edge12" class="edge">
<title>nodo7:f1&#45;&gt;nodo6:f2</title>
<path fill="none" stroke="black" d="M1818.75,-51.75C1807.38,-51.75 1802.07,-51.75 1794.2,-51.75"/>
<polygon fill="black" stroke="black" points="1794.26,-48.25 1784.26,-51.75 1794.26,-55.25 1794.26,-48.25"/>
</g>
<!-- nodo8 -->
<g id="node8" class="node">
<title>nodo8</title>
<polygon fill="none" stroke="black" points="2101.5,-0.5 2101.5,-103 2369.25,-103 2369.25,-0.5 2101.5,-0.5"/>
<text text-anchor="middle" x="2111.38" y="-46.33" font-family="Times New Roman,serif" font-size="14.00"> </text>
<polyline fill="none" stroke="black" points="2121.25,-0.5 2121.25,-103"/>
<text text-anchor="middle" x="2235.38" y="-85.7" font-family="Times New Roman,serif" font-size="14.00">ID: IPC&#45;008</text>
<text text-anchor="middle" x="2235.38" y="-69.95" font-family="Times New Roman,serif" font-size="14.00">Password: 4912</text>
<text text-anchor="middle" x="2235.38" y="-54.2" font-family="Times New Roman,serif" font-size="14.00">Nombre: Diego Torres</text>
<text text-anchor="middle" x="2235.38" y="-38.45" font-family="Times New Roman,serif" font-size="14.00">Correo: diego.torres@correo.com</text>
<text text-anchor="middle" x="2235.38" y="-22.7" font-family="Times New Roman,serif" font-size="14.00">Telefono: 17208214</text>
<text text-anchor="middle" x="2235.38" y="-6.95" font-family="Times New Roman,serif" font-size="14.00">Direccion: Quetzaltenango, Guatemala</text>
<polyline fill="none" stroke="black" points="2349.5,-0.5 2349.5,-103"/>
<text text-anchor="middle" x="2359.38" y="-46.33" font-family="Times New Roman,serif" font-size="14.00"> </text>
</g>
<!-- nodo7&#45;&gt;nodo8 -->
<g id="edge13" class="edge">
<title>nodo7:f2&#45;&gt;nodo8:f1</title>
<path fill="none" stroke="black" d="M2065.5,-51.75C2076.88,-51.75 2082.18,-51.75 2090.05,-51.75"/>
<polygon fill="black" stroke="black" points="2089.99,-55.25 2099.99,-51.75 2089.99,-48.25 2089.99,-55.25"/>
</g>
<!-- nodo8&#45;&gt;nodo7 -->
<g id="edge14" class="edge">
<title>nodo8:f1&#45;&gt;nodo7:f2</title>
<path fill="none" stroke="black" d="M2101.5,-51.75C2090.12,-51.75 2084.82,-51.75 2076.95,-51.75"/>
<polygon fill="black" stroke="black" points="2077.01,-48.25 2067.01,-51.75 2077.01,-55.25 2077.01,-48.25"/>
</g>
<!-- nodo9 -->
<g id="node9" class="node">
<title>nodo9</title>
<polygon fill="none" stroke="black" points="2405.25,-0.5 2405.25,-103 2664,-103 2664,-0.5 2405.25,-0.5"/>
<text text-anchor="middle" x="2415.12" y="-46.33" font-family="Times New Roman,serif" font-size="14.00"> </text>
<polyline fill="none" stroke="black" points="2425,-0.5 2425,-103"/>
<text text-anchor="middle" x="2534.62" y="-85.7" font-family="Times New Roman,serif" font-size="14.00">ID: IPC&#45;009</text>
<text text-anchor="middle" x="2534.62" y="-69.95" font-family="Times New Roman,serif" font-size="14.00">Password: 3328</text>
<text text-anchor="middle" x="2534.62" y="-54.2" font-family="Times New Roman,serif" font-size="14.00">Nombre: Luis Hernández</text>
<text text-anchor="middle" x="2534.62" y="-38.45" font-family="Times New Roman,serif" font-size="14.00">Correo: luis.hernández@correo.com</text>
<text text-anchor="middle" x="2534.62" y="-22.7" font-family="Times New Roman,serif" font-size="14.00">Telefono: 65184529</text>
<text text-anchor="middle" x="2534.62" y="-6.95" font-family="Times New Roman,serif" font-size="14.00">Direccion: Escuintla, Guatemala</text>
<polyline fill="none" stroke="black" points="2644.25,-0.5 2644.25,-103"/>
<text text-anchor="middle" x="2654.12" y="-46.33" font-family="Times New Roman,serif" font-size="14.00"> </text>
</g>
<!-- nodo8&#45;&gt;nodo9 -->
<g id="edge15" class="edge">
<title>nodo8:f2&#45;&gt;nodo9:f1</title>
<path fill="none" stroke="black" d="M2369.25,-51.75C2380.62,-51.75 2385.93,-51.75 2393.8,-51.75"/>
<polygon fill="black" stroke="black" points="2393.74,-55.25 2403.74,-51.75 2393.74,-48.25 2393.74,-55.25"/>
</g>
<!-- nodo9&#45;&gt;nodo8 -->
<g id="edge16" class="edge">
<title>nodo9:f1&#45;&gt;nodo8:f2</title>
<path fill="none" stroke="black" d="M2405.25,-51.75C2393.88,-51.75 2388.57,-51.75 2380.7,-51.75"/>
<polygon fill="black" stroke="black" points="2380.76,-48.25 2370.76,-51.75 2380.76,-55.25 2380.76,-48.25"/>
</g>
<!-- nodo10 -->
<g id="node10" class="node">
<title>nodo10</title>
<polygon fill="none" stroke="black" points="2700,-0.5 2700,-103 2967.75,-103 2967.75,-0.5 2700,-0.5"/>
<text text-anchor="middle" x="2709.88" y="-46.33" font-family="Times New Roman,serif" font-size="14.00"> </text>
<polyline fill="none" stroke="black" points="2719.75,-0.5 2719.75,-103"/>
<text text-anchor="middle" x="2833.88" y="-85.7" font-family="Times New Roman,serif" font-size="14.00">ID: IPC&#45;010</text>
<text text-anchor="middle" x="2833.88" y="-69.95" font-family="Times New Roman,serif" font-size="14.00">Password: 3777</text>
<text text-anchor="middle" x="2833.88" y="-54.2" font-family="Times New Roman,serif" font-size="14.00">Nombre: Diego Torres</text>
<text text-anchor="middle" x="2833.88" y="-38.45" font-family="Times New Roman,serif" font-size="14.00">Correo: diego.torres@example.com</text>
<text text-anchor="middle" x="2833.88" y="-22.7" font-family="Times New Roman,serif" font-size="14.00">Telefono: 47860837</text>
<text text-anchor="middle" x="2833.88" y="-6.95" font-family="Times New Roman,serif" font-size="14.00">Direccion: Quetzaltenango, Guatemala</text>
<polyline fill="none" stroke="black" points="2948,-0.5 2948,-103"/>
<text text-anchor="middle" x="2957.88" y="-46.33" font-family="Times New Roman,serif" font-size="14.00"> </text>
</g>
<!-- nodo9&#45;&gt;nodo10 -->
<g id="edge17" class="edge">
<title>nodo9:f2&#45;&gt;nodo10:f1</title>
<path fill="none" stroke="black" d="M2664,-51.75C2675.38,-51.75 2680.68,-51.75 2688.55,-51.75"/>
<polygon fill="black" stroke="black" points="2688.49,-55.25 2698.49,-51.75 2688.49,-48.25 2688.49,-55.25"/>
</g>
<!-- nodo10&#45;&gt;nodo9 -->
<g id="edge18" class="edge">
<title>nodo10:f1&#45;&gt;nodo9:f2</title>
<path fill="none" stroke="black" d="M2700,-51.75C2688.62,-51.75 2683.32,-51.75 2675.45,-51.75"/>
<polygon fill="black" stroke="black" points="2675.51,-48.25 2665.51,-51.75 2675.51,-55.25 2675.51,-48.25"/>
</g>
</g>
</svg>
